<mxfile host="app.diagrams.net" modified="2023-07-04T10:58:00.457Z" agent="Mozilla/5.0 (Macintosh; Intel Mac OS X 10_15_7) AppleWebKit/537.36 (KHTML, like Gecko) Chrome/114.0.0.0 Safari/537.36" etag="crf95W5h4zrrJseuRNPN" version="21.5.2" type="github">
  <diagram name="Page-1" id="tNCdCvzLN6aKXnkDYinf">
    <mxGraphModel dx="2284" dy="770" grid="1" gridSize="10" guides="1" tooltips="1" connect="1" arrows="1" fold="1" page="1" pageScale="1" pageWidth="850" pageHeight="1100" math="0" shadow="0">
      <root>
        <mxCell id="0" />
        <mxCell id="1" parent="0" />
        <mxCell id="Oi212eivYsXXV9bnIv-S-3" style="edgeStyle=orthogonalEdgeStyle;rounded=0;orthogonalLoop=1;jettySize=auto;html=1;exitX=0.5;exitY=1;exitDx=0;exitDy=0;entryX=0.5;entryY=0;entryDx=0;entryDy=0;" edge="1" parent="1" source="Oi212eivYsXXV9bnIv-S-1" target="Oi212eivYsXXV9bnIv-S-6">
          <mxGeometry relative="1" as="geometry">
            <mxPoint x="40" y="160" as="targetPoint" />
            <Array as="points">
              <mxPoint x="280" y="120" />
              <mxPoint x="-70" y="120" />
            </Array>
          </mxGeometry>
        </mxCell>
        <mxCell id="Oi212eivYsXXV9bnIv-S-9" style="edgeStyle=orthogonalEdgeStyle;rounded=0;orthogonalLoop=1;jettySize=auto;html=1;exitX=0.5;exitY=1;exitDx=0;exitDy=0;entryX=0.5;entryY=0;entryDx=0;entryDy=0;" edge="1" parent="1">
          <mxGeometry relative="1" as="geometry">
            <mxPoint x="425" y="120" as="sourcePoint" />
            <mxPoint x="80" y="180" as="targetPoint" />
          </mxGeometry>
        </mxCell>
        <mxCell id="Oi212eivYsXXV9bnIv-S-11" style="edgeStyle=orthogonalEdgeStyle;rounded=0;orthogonalLoop=1;jettySize=auto;html=1;" edge="1" parent="1">
          <mxGeometry relative="1" as="geometry">
            <mxPoint x="365" y="120" as="sourcePoint" />
            <mxPoint x="230" y="210" as="targetPoint" />
          </mxGeometry>
        </mxCell>
        <mxCell id="Oi212eivYsXXV9bnIv-S-14" style="edgeStyle=orthogonalEdgeStyle;rounded=0;orthogonalLoop=1;jettySize=auto;html=1;exitX=0.5;exitY=1;exitDx=0;exitDy=0;entryX=0.5;entryY=0;entryDx=0;entryDy=0;" edge="1" parent="1" source="Oi212eivYsXXV9bnIv-S-1" target="Oi212eivYsXXV9bnIv-S-15">
          <mxGeometry relative="1" as="geometry">
            <mxPoint x="490" y="160" as="targetPoint" />
            <Array as="points">
              <mxPoint x="280" y="120" />
              <mxPoint x="400" y="120" />
            </Array>
          </mxGeometry>
        </mxCell>
        <mxCell id="Oi212eivYsXXV9bnIv-S-16" style="edgeStyle=orthogonalEdgeStyle;rounded=0;orthogonalLoop=1;jettySize=auto;html=1;exitX=0.5;exitY=1;exitDx=0;exitDy=0;entryX=0.5;entryY=0;entryDx=0;entryDy=0;" edge="1" parent="1" source="Oi212eivYsXXV9bnIv-S-1" target="Oi212eivYsXXV9bnIv-S-17">
          <mxGeometry relative="1" as="geometry">
            <mxPoint x="640" y="160" as="targetPoint" />
            <Array as="points">
              <mxPoint x="280" y="120" />
              <mxPoint x="660" y="120" />
            </Array>
          </mxGeometry>
        </mxCell>
        <mxCell id="Oi212eivYsXXV9bnIv-S-1" value="Communication improvement for the hospital" style="rounded=1;whiteSpace=wrap;html=1;" vertex="1" parent="1">
          <mxGeometry x="220" y="30" width="120" height="60" as="geometry" />
        </mxCell>
        <mxCell id="Oi212eivYsXXV9bnIv-S-19" style="edgeStyle=orthogonalEdgeStyle;rounded=0;orthogonalLoop=1;jettySize=auto;html=1;exitX=0;exitY=0.5;exitDx=0;exitDy=0;entryX=0;entryY=0.5;entryDx=0;entryDy=0;" edge="1" parent="1" source="Oi212eivYsXXV9bnIv-S-6" target="Oi212eivYsXXV9bnIv-S-18">
          <mxGeometry relative="1" as="geometry" />
        </mxCell>
        <mxCell id="Oi212eivYsXXV9bnIv-S-21" style="edgeStyle=orthogonalEdgeStyle;rounded=0;orthogonalLoop=1;jettySize=auto;html=1;exitX=0;exitY=0.5;exitDx=0;exitDy=0;entryX=0;entryY=0.5;entryDx=0;entryDy=0;" edge="1" parent="1" source="Oi212eivYsXXV9bnIv-S-6" target="Oi212eivYsXXV9bnIv-S-20">
          <mxGeometry relative="1" as="geometry" />
        </mxCell>
        <mxCell id="Oi212eivYsXXV9bnIv-S-24" style="edgeStyle=orthogonalEdgeStyle;rounded=0;orthogonalLoop=1;jettySize=auto;html=1;exitX=0;exitY=0.5;exitDx=0;exitDy=0;entryX=0;entryY=0.5;entryDx=0;entryDy=0;" edge="1" parent="1" source="Oi212eivYsXXV9bnIv-S-6" target="Oi212eivYsXXV9bnIv-S-23">
          <mxGeometry relative="1" as="geometry" />
        </mxCell>
        <mxCell id="Oi212eivYsXXV9bnIv-S-6" value="Define clear communication guidelines" style="rounded=1;whiteSpace=wrap;html=1;" vertex="1" parent="1">
          <mxGeometry x="-130" y="160" width="120" height="60" as="geometry" />
        </mxCell>
        <mxCell id="Oi212eivYsXXV9bnIv-S-26" style="edgeStyle=orthogonalEdgeStyle;rounded=0;orthogonalLoop=1;jettySize=auto;html=1;exitX=0;exitY=0.5;exitDx=0;exitDy=0;entryX=0;entryY=0.5;entryDx=0;entryDy=0;" edge="1" parent="1" source="Oi212eivYsXXV9bnIv-S-8" target="Oi212eivYsXXV9bnIv-S-25">
          <mxGeometry relative="1" as="geometry" />
        </mxCell>
        <mxCell id="Oi212eivYsXXV9bnIv-S-28" style="edgeStyle=orthogonalEdgeStyle;rounded=0;orthogonalLoop=1;jettySize=auto;html=1;exitX=0;exitY=0.5;exitDx=0;exitDy=0;entryX=0;entryY=0.5;entryDx=0;entryDy=0;" edge="1" parent="1" source="Oi212eivYsXXV9bnIv-S-8" target="Oi212eivYsXXV9bnIv-S-27">
          <mxGeometry relative="1" as="geometry" />
        </mxCell>
        <mxCell id="Oi212eivYsXXV9bnIv-S-8" value="Implement clear communication tools" style="rounded=1;whiteSpace=wrap;html=1;" vertex="1" parent="1">
          <mxGeometry x="20" y="160" width="120" height="60" as="geometry" />
        </mxCell>
        <mxCell id="Oi212eivYsXXV9bnIv-S-31" style="edgeStyle=orthogonalEdgeStyle;rounded=0;orthogonalLoop=1;jettySize=auto;html=1;exitX=0;exitY=0.5;exitDx=0;exitDy=0;entryX=0;entryY=0.5;entryDx=0;entryDy=0;" edge="1" parent="1" source="Oi212eivYsXXV9bnIv-S-10" target="Oi212eivYsXXV9bnIv-S-29">
          <mxGeometry relative="1" as="geometry" />
        </mxCell>
        <mxCell id="Oi212eivYsXXV9bnIv-S-32" style="edgeStyle=orthogonalEdgeStyle;rounded=0;orthogonalLoop=1;jettySize=auto;html=1;exitX=0;exitY=0.5;exitDx=0;exitDy=0;entryX=0.007;entryY=0.614;entryDx=0;entryDy=0;entryPerimeter=0;" edge="1" parent="1" source="Oi212eivYsXXV9bnIv-S-10" target="Oi212eivYsXXV9bnIv-S-30">
          <mxGeometry relative="1" as="geometry" />
        </mxCell>
        <mxCell id="Oi212eivYsXXV9bnIv-S-10" value="Implement training for effective communications" style="rounded=1;whiteSpace=wrap;html=1;" vertex="1" parent="1">
          <mxGeometry x="170" y="160" width="120" height="60" as="geometry" />
        </mxCell>
        <mxCell id="Oi212eivYsXXV9bnIv-S-34" style="edgeStyle=orthogonalEdgeStyle;rounded=0;orthogonalLoop=1;jettySize=auto;html=1;exitX=0;exitY=0.5;exitDx=0;exitDy=0;entryX=0;entryY=0.5;entryDx=0;entryDy=0;" edge="1" parent="1" source="Oi212eivYsXXV9bnIv-S-15" target="Oi212eivYsXXV9bnIv-S-33">
          <mxGeometry relative="1" as="geometry" />
        </mxCell>
        <mxCell id="Oi212eivYsXXV9bnIv-S-36" style="edgeStyle=orthogonalEdgeStyle;rounded=0;orthogonalLoop=1;jettySize=auto;html=1;exitX=0;exitY=0.5;exitDx=0;exitDy=0;entryX=0;entryY=0.5;entryDx=0;entryDy=0;" edge="1" parent="1" source="Oi212eivYsXXV9bnIv-S-15" target="Oi212eivYsXXV9bnIv-S-35">
          <mxGeometry relative="1" as="geometry" />
        </mxCell>
        <mxCell id="Oi212eivYsXXV9bnIv-S-15" value="Implement a plan for cross department collabartion" style="rounded=1;whiteSpace=wrap;html=1;" vertex="1" parent="1">
          <mxGeometry x="340" y="160" width="120" height="60" as="geometry" />
        </mxCell>
        <mxCell id="Oi212eivYsXXV9bnIv-S-39" style="edgeStyle=orthogonalEdgeStyle;rounded=0;orthogonalLoop=1;jettySize=auto;html=1;exitX=0;exitY=0.5;exitDx=0;exitDy=0;entryX=0;entryY=0.5;entryDx=0;entryDy=0;" edge="1" parent="1" source="Oi212eivYsXXV9bnIv-S-17" target="Oi212eivYsXXV9bnIv-S-37">
          <mxGeometry relative="1" as="geometry" />
        </mxCell>
        <mxCell id="Oi212eivYsXXV9bnIv-S-40" style="edgeStyle=orthogonalEdgeStyle;rounded=0;orthogonalLoop=1;jettySize=auto;html=1;exitX=0;exitY=0.5;exitDx=0;exitDy=0;entryX=0;entryY=0.5;entryDx=0;entryDy=0;" edge="1" parent="1" source="Oi212eivYsXXV9bnIv-S-17" target="Oi212eivYsXXV9bnIv-S-38">
          <mxGeometry relative="1" as="geometry" />
        </mxCell>
        <mxCell id="Oi212eivYsXXV9bnIv-S-17" value="Implement a process for monitoring and evaluating the communication processes" style="rounded=1;whiteSpace=wrap;html=1;" vertex="1" parent="1">
          <mxGeometry x="590" y="160" width="140" height="70" as="geometry" />
        </mxCell>
        <mxCell id="Oi212eivYsXXV9bnIv-S-18" value="Assess what the needs are for the communications guidelines" style="rounded=1;whiteSpace=wrap;html=1;" vertex="1" parent="1">
          <mxGeometry x="-130" y="280" width="120" height="60" as="geometry" />
        </mxCell>
        <mxCell id="Oi212eivYsXXV9bnIv-S-20" value="Peer review the guidelines by the hospital staff" style="rounded=1;whiteSpace=wrap;html=1;" vertex="1" parent="1">
          <mxGeometry x="-130" y="400" width="120" height="60" as="geometry" />
        </mxCell>
        <mxCell id="Oi212eivYsXXV9bnIv-S-23" value="Review and iterate over the guidelines as requirments and needs change" style="rounded=1;whiteSpace=wrap;html=1;" vertex="1" parent="1">
          <mxGeometry x="-130" y="500" width="120" height="60" as="geometry" />
        </mxCell>
        <mxCell id="Oi212eivYsXXV9bnIv-S-25" value="Conduct research for what communication tools are available" style="rounded=1;whiteSpace=wrap;html=1;" vertex="1" parent="1">
          <mxGeometry x="20" y="280" width="120" height="60" as="geometry" />
        </mxCell>
        <mxCell id="Oi212eivYsXXV9bnIv-S-27" value="Provide training on the choses communication platform" style="rounded=1;whiteSpace=wrap;html=1;" vertex="1" parent="1">
          <mxGeometry x="20" y="400" width="120" height="60" as="geometry" />
        </mxCell>
        <mxCell id="Oi212eivYsXXV9bnIv-S-29" value="Define what effective communications is" style="rounded=1;whiteSpace=wrap;html=1;" vertex="1" parent="1">
          <mxGeometry x="170" y="280" width="120" height="60" as="geometry" />
        </mxCell>
        <mxCell id="Oi212eivYsXXV9bnIv-S-30" value="Using the above definitions to create a training plan for staff to undergo&lt;br&gt;" style="rounded=1;whiteSpace=wrap;html=1;" vertex="1" parent="1">
          <mxGeometry x="170" y="400" width="140" height="70" as="geometry" />
        </mxCell>
        <mxCell id="Oi212eivYsXXV9bnIv-S-33" value="Define what departments need to collabarate to reduce errors" style="rounded=1;whiteSpace=wrap;html=1;" vertex="1" parent="1">
          <mxGeometry x="340" y="280" width="120" height="60" as="geometry" />
        </mxCell>
        <mxCell id="Oi212eivYsXXV9bnIv-S-35" value="Using the defines guidelines and platforms for communications implement a plan for departments to use these tools to increase collaboration" style="rounded=1;whiteSpace=wrap;html=1;" vertex="1" parent="1">
          <mxGeometry x="340" y="400" width="170" height="100" as="geometry" />
        </mxCell>
        <mxCell id="Oi212eivYsXXV9bnIv-S-37" value="Monitor the error rate regarding patients" style="rounded=1;whiteSpace=wrap;html=1;" vertex="1" parent="1">
          <mxGeometry x="590" y="280" width="120" height="60" as="geometry" />
        </mxCell>
        <mxCell id="Oi212eivYsXXV9bnIv-S-38" value="Compare these error rates to the error rates before the improvements took place" style="rounded=1;whiteSpace=wrap;html=1;" vertex="1" parent="1">
          <mxGeometry x="600" y="410" width="150" height="75" as="geometry" />
        </mxCell>
      </root>
    </mxGraphModel>
  </diagram>
</mxfile>
